<?xml version="1.0" standalone="no"?>
<!DOCTYPE svg PUBLIC "-//W3C//DTD SVG 1.1//EN" "http://www.w3.org/Graphics/SVG/1.1/DTD/svg11.dtd" >
<svg>
<metadata>
Created by FontForge 20120731 at Mon May 28 14:37:53 2018
 By www
Copyright (c) 1990, 1991 Adobe Systems Incorporated. All Rights Reserved.Gill Sans is a registered trademark of The Monotype Corporation Plc.
</metadata>
<defs>
<font id="GillSans-Bold" horiz-adv-x="333" >
  <font-face 
    font-family="Gill Sans"
    font-weight="700"
    font-stretch="normal"
    units-per-em="1000"
    panose-1="0 0 0 0 0 0 0 0 0 0"
    ascent="800"
    descent="-200"
    x-height="461"
    cap-height="682"
    bbox="-177 -250 1167 929"
    underline-thickness="50"
    underline-position="-75"
    stemh="95"
    stemv="145"
    unicode-range="U+0020-FB02"
  />
<missing-glyph horiz-adv-x="278" 
 />
    <glyph glyph-name=".notdef" horiz-adv-x="278" 
 />
    <glyph glyph-name="space" unicode=" " horiz-adv-x="278" 
 />
    <glyph glyph-name="exclam" unicode="!" horiz-adv-x="271" 
d="M136 206c-21 0 -26 5 -35 42c-11 46 -49 225 -49 335c0 69 30 108 84 108c53 0 83 -38 83 -108c0 -83 -38 -299 -50 -341c-9 -32 -14 -36 -33 -36zM136 165c48 0 87 -39 87 -87s-39 -87 -87 -87s-87 39 -87 87s39 87 87 87z" />
    <glyph glyph-name="quotedbl" unicode="&#x22;" horiz-adv-x="479" 
d="M426 595l-24 -134h-87l-24 134v121h135v-121zM53 595v121h135v-121l-24 -134h-87z" />
    <glyph glyph-name="numbersign" unicode="#" horiz-adv-x="584" 
d="M-6 501h145l38 181h113l-38 -181h154l38 181h111l-38 -181h74v-109h-96l-27 -131h123v-109h-147l-38 -181h-111l37 181h-153l-37 -181h-114l38 181h-72v109h95l27 131h-122v109zM229 392l-27 -131h153l27 131h-153z" />
    <glyph glyph-name="dollar" unicode="$" horiz-adv-x="542" 
d="M467 604v-123c-54 40 -96 57 -156 66v-162c127 -39 191 -122 191 -203c0 -98 -70 -170 -191 -191v-110h-84v110c-49 6 -133 40 -175 69v118c63 -48 118 -74 175 -84v192c-134 31 -182 107 -182 191c0 94 74 166 182 178v36h84v-36c48 -2 102 -20 156 -51zM227 415v132
c-42 -10 -67 -34 -67 -64c0 -31 23 -54 67 -68zM311 260v-164c47 10 77 41 77 79s-28 68 -77 85z" />
    <glyph glyph-name="percent" unicode="%" horiz-adv-x="719" 
d="M256 530c0 41 -32 75 -71 75c-40 0 -71 -32 -71 -75c0 -40 32 -75 71 -75c40 0 71 33 71 75zM346 530c0 -88 -72 -161 -161 -161s-161 73 -161 161c0 90 72 161 161 161s161 -71 161 -161zM638 691l-477 -699h-83l480 699h80zM694 152c0 -88 -72 -161 -161 -161
s-161 73 -161 161c0 90 72 161 161 161s161 -71 161 -161zM604 152c0 41 -32 75 -71 75c-40 0 -71 -32 -71 -75c0 -40 32 -75 71 -75c40 0 71 33 71 75z" />
    <glyph glyph-name="ampersand" unicode="&#x26;" horiz-adv-x="750" 
d="M580 354h146c-40 -92 -83 -156 -137 -204l137 -150h-207l-50 54c-68 -43 -137 -63 -214 -63c-124 0 -216 77 -216 180c0 78 48 139 153 193c-39 55 -62 95 -62 151c0 102 88 176 209 176c116 0 197 -67 197 -162c0 -66 -44 -126 -127 -175l93 -107c31 31 57 68 78 107z
M335 435c49 29 68 53 68 86s-26 57 -63 57s-63 -22 -63 -52c0 -25 25 -62 58 -91zM390 142l-121 134c-48 -31 -70 -60 -70 -92c0 -44 39 -80 86 -80c31 0 72 15 105 38z" />
    <glyph glyph-name="quoteright" unicode="&#x2019;" horiz-adv-x="271" 
d="M50 379v31c29 26 51 81 45 129c-35 14 -51 36 -51 73c0 46 35 79 82 79c59 0 100 -47 100 -114c0 -100 -78 -188 -176 -198z" />
    <glyph glyph-name="parenleft" unicode="(" horiz-adv-x="385" 
d="M201 231c0 -160 43 -308 178 -461h-103c-138 109 -231 286 -231 461s95 354 231 460h103c-135 -150 -178 -300 -178 -460z" />
    <glyph glyph-name="parenright" unicode=")" horiz-adv-x="385" 
d="M184 231c0 160 -43 310 -178 460h103c136 -106 231 -285 231 -460s-93 -350 -231 -461h-103c135 154 178 301 178 461z" />
    <glyph glyph-name="asterisk" unicode="*" horiz-adv-x="469" 
d="M292 301c8 -26 -1 -37 -26 -37h-61c-25 0 -37 7 -28 37l44 142l-12 11l-99 -102c-26 -26 -37 -31 -50 -6l-28 53c-12 23 -7 39 15 44l152 33v2l-152 34c-20 5 -27 20 -17 40l30 57c12 23 18 26 50 -6l99 -102l12 11l-44 142c-8 25 0 37 28 37h58c29 0 37 -10 29 -37
l-44 -142l12 -11l99 102c29 29 35 31 50 3l25 -45c16 -29 12 -43 -12 -49l-152 -34v-2l152 -33c23 -5 27 -23 14 -46l-26 -47c-15 -27 -21 -28 -43 -6l-107 110l-12 -11z" />
    <glyph glyph-name="plus" unicode="+" horiz-adv-x="584" 
d="M42 289v128h186v186h128v-186h186v-128h-186v-186h-128v186h-186z" />
    <glyph glyph-name="comma" unicode="," horiz-adv-x="271" 
d="M50 -169v31c29 26 51 81 45 129c-35 14 -51 36 -51 73c0 46 35 79 82 79c59 0 100 -47 100 -114c0 -100 -78 -188 -176 -198z" />
    <glyph glyph-name="hyphen" unicode="-" 
d="M297 298v-133h-261v133h261z" />
    <glyph glyph-name="period" unicode="." horiz-adv-x="271" 
d="M135 165c48 0 87 -39 87 -87s-39 -87 -87 -87s-87 39 -87 87s39 87 87 87z" />
    <glyph glyph-name="slash" unicode="/" horiz-adv-x="281" 
d="M0 -9l169 700h103l-171 -700h-101z" />
    <glyph glyph-name="zero" unicode="0" horiz-adv-x="552" 
d="M507 344c0 -200 -68 -353 -228 -353c-158 0 -235 144 -235 350c0 231 96 350 233 350c153 0 230 -146 230 -347zM355 355c0 135 -17 208 -79 208c-71 0 -80 -95 -80 -229c0 -139 19 -215 81 -215c67 0 78 94 78 236z" />
    <glyph glyph-name="one" unicode="1" horiz-adv-x="552" 
d="M349 682v-682h-151v682h151z" />
    <glyph glyph-name="two" unicode="2" horiz-adv-x="552" 
d="M505 139v-139h-451v19c72 88 141 188 190 263c56 85 74 135 74 188s-40 98 -91 98c-48 0 -109 -32 -164 -85v143c74 47 126 65 191 65c134 0 216 -73 216 -194c0 -86 -63 -203 -185 -358h220z" />
    <glyph glyph-name="three" unicode="3" horiz-adv-x="552" 
d="M203 294v120c63 0 94 42 94 81c0 46 -41 79 -97 79c-40 0 -77 -10 -125 -33v120c45 20 100 30 156 30c129 0 218 -68 218 -167c0 -66 -35 -122 -101 -158c84 -32 120 -98 120 -175c0 -122 -95 -200 -243 -200c-58 0 -121 15 -167 39v132c55 -38 98 -54 144 -54
c63 0 107 36 107 90c0 55 -43 94 -106 96z" />
    <glyph glyph-name="four" unicode="4" horiz-adv-x="552" 
d="M458 691v-414h46v-109h-46v-168h-151v168h-266v109l321 414h96zM305 463l-144 -186h146v186h-2z" />
    <glyph glyph-name="five" unicode="5" horiz-adv-x="552" 
d="M453 682v-137h-218v-127c155 11 241 -93 241 -210c0 -132 -96 -217 -247 -217c-57 0 -131 16 -165 37v124c52 -29 100 -44 145 -44c63 0 108 40 108 95c0 77 -83 116 -218 90v389h354z" />
    <glyph glyph-name="six" unicode="6" horiz-adv-x="552" 
d="M423 691l-158 -258c106 29 231 -46 231 -209c0 -134 -96 -233 -226 -233c-134 0 -226 98 -226 242c0 82 28 162 93 267l118 191h168zM350 220c0 61 -31 102 -78 102s-76 -40 -76 -104c0 -63 29 -99 77 -99c47 0 77 39 77 101z" />
    <glyph glyph-name="seven" unicode="7" horiz-adv-x="552" 
d="M133 43l183 503h-252v136h451v-8l-246 -683z" />
    <glyph glyph-name="eight" unicode="8" horiz-adv-x="552" 
d="M486 505c0 -64 -28 -112 -83 -145c68 -35 102 -91 102 -165c0 -123 -90 -204 -230 -204c-135 0 -227 83 -227 203c0 79 34 134 103 166c-60 39 -84 80 -84 146c0 111 83 185 207 185c146 0 212 -98 212 -186zM340 500c0 59 -23 91 -64 91c-39 0 -63 -35 -63 -93
c0 -59 25 -96 65 -96c39 0 62 37 62 98zM353 196c0 67 -30 109 -76 109c-47 0 -77 -41 -77 -105c0 -66 31 -109 78 -109c45 0 75 41 75 105z" />
    <glyph glyph-name="nine" unicode="9" horiz-adv-x="552" 
d="M125 -9l157 256c-122 -34 -232 72 -232 208c0 134 98 236 227 236s225 -101 225 -238c0 -84 -26 -163 -90 -267l-120 -195h-167zM350 459c0 64 -29 104 -76 104c-45 0 -78 -43 -78 -103c0 -61 31 -103 78 -103c44 0 76 43 76 102z" />
    <glyph glyph-name="colon" unicode=":" horiz-adv-x="271" 
d="M135 461c48 0 87 -39 87 -87s-39 -87 -87 -87s-87 39 -87 87s39 87 87 87zM135 165c48 0 87 -39 87 -87s-39 -87 -87 -87s-87 39 -87 87s39 87 87 87z" />
    <glyph glyph-name="semicolon" unicode=";" horiz-adv-x="271" 
d="M50 -169v31c29 26 51 81 45 129c-35 14 -51 36 -51 73c0 46 35 79 82 79c59 0 100 -47 100 -114c0 -100 -78 -188 -176 -198zM135 461c48 0 87 -39 87 -87s-39 -87 -87 -87s-87 39 -87 87s39 87 87 87z" />
    <glyph glyph-name="less" unicode="&#x3c;" horiz-adv-x="584" 
d="M47 295v120l491 213v-137l-343 -136l343 -136v-137z" />
    <glyph glyph-name="equal" unicode="=" horiz-adv-x="584" 
d="M42 180v128h500v-128h-500zM42 398v128h500v-128h-500z" />
    <glyph glyph-name="greater" unicode="&#x3e;" horiz-adv-x="584" 
d="M537 295l-491 -213v137l343 136l-343 136v137l491 -213v-120z" />
    <glyph glyph-name="question" unicode="?" horiz-adv-x="375" 
d="M25 548l25 123c44 15 76 20 116 20c103 0 165 -56 165 -140c0 -153 -145 -199 -145 -318v-12c0 -15 -8 -16 -31 -16c-13 0 -21 3 -26 8c-8 8 -28 63 -28 104c0 98 78 154 78 215c0 32 -22 51 -59 51c-33 0 -51 -7 -86 -35h-9zM158 165c48 0 87 -39 87 -87
s-39 -87 -87 -87s-87 39 -87 87s39 87 87 87z" />
    <glyph glyph-name="at" unicode="@" horiz-adv-x="979" 
d="M868 9h104c-70 -141 -222 -219 -429 -219c-231 0 -513 117 -513 440c0 214 130 498 501 498c246 0 415 -151 415 -373c0 -176 -129 -355 -323 -355c-52 0 -79 17 -89 56c-38 -38 -82 -56 -132 -56c-111 0 -188 84 -188 205c0 139 91 324 262 324c57 0 104 -23 131 -66
l12 54h129l-78 -370c-7 -35 1 -47 16 -47c51 0 172 109 172 257c0 123 -81 283 -335 283c-300 0 -405 -231 -405 -409c0 -243 195 -353 413 -353c158 0 267 43 337 131zM340 203c0 -69 35 -114 88 -114c114 0 152 173 152 238c0 70 -36 114 -91 114
c-100 0 -149 -134 -149 -238z" />
    <glyph glyph-name="A" unicode="A" horiz-adv-x="781" 
d="M475 682l303 -682h-183l-56 135h-305l-51 -135h-180l275 682h197zM489 254l-110 265l-100 -265h210z" />
    <glyph glyph-name="B" unicode="B" horiz-adv-x="698" 
d="M76 682h295c161 0 226 -95 226 -171c0 -57 -36 -108 -93 -136c97 -25 145 -95 145 -175c0 -78 -42 -200 -241 -200h-332v682zM246 557v-146h89c62 0 87 38 87 74c0 35 -25 72 -87 72h-89zM246 286v-161h96c94 0 127 25 127 84c0 50 -44 77 -104 77h-119z" />
    <glyph glyph-name="C" unicode="C" horiz-adv-x="771" 
d="M712 208v-149c-95 -49 -167 -68 -268 -68c-265 0 -397 172 -397 348c0 182 149 352 410 352c95 0 180 -20 247 -60v-152c-75 42 -151 70 -235 70c-145 0 -247 -86 -247 -207c0 -122 101 -209 243 -209c89 0 149 28 247 75z" />
    <glyph glyph-name="D" unicode="D" horiz-adv-x="802" 
d="M75 682h301c249 0 377 -155 377 -342c0 -196 -124 -340 -396 -340h-282v682zM245 557v-432h111c171 0 222 116 222 216c0 117 -63 216 -224 216h-109z" />
    <glyph glyph-name="E" unicode="E" horiz-adv-x="635" 
d="M581 125v-125h-503v682h496v-125h-326v-143h311v-125h-311v-164h333z" />
    <glyph glyph-name="F" unicode="F" horiz-adv-x="604" 
d="M546 682v-125h-300v-152h300v-125h-300v-280h-170v682h470z" />
    <glyph glyph-name="G" unicode="G" horiz-adv-x="813" 
d="M727 635v-149c-87 42 -171 63 -255 63c-185 0 -250 -114 -250 -215c0 -121 95 -201 236 -201c42 0 63 4 113 24v80h-99v125h269v-279c-51 -53 -177 -92 -287 -92c-238 0 -407 145 -407 349c0 208 168 351 411 351c102 0 201 -23 269 -56z" />
    <glyph glyph-name="H" unicode="H" horiz-adv-x="833" 
d="M757 682v-682h-170v276h-340v-276h-170v682h170v-274h340v274h170z" />
    <glyph glyph-name="I" unicode="I" 
d="M252 682v-682h-170v682h170z" />
    <glyph glyph-name="J" unicode="J" 
d="M259 682v-619c0 -82 -17 -153 -67 -203c-45 -45 -107 -66 -224 -57v134c84 -14 121 38 121 123v622h170z" />
    <glyph glyph-name="K" unicode="K" horiz-adv-x="719" 
d="M649 682l-222 -320l301 -362h-213l-270 320v-320h-170v682h170v-309h2l215 309h187z" />
    <glyph glyph-name="L" unicode="L" horiz-adv-x="615" 
d="M596 125v-125h-520v682h170v-557h350z" />
    <glyph glyph-name="M" unicode="M" horiz-adv-x="885" 
d="M443 429l219 253h148v-682h-170v426l-184 -214h-26l-184 214v-426h-170v682h148z" />
    <glyph glyph-name="N" unicode="N" horiz-adv-x="844" 
d="M767 682v-682h-143l-377 437v-437h-170v682h156l364 -417v417h170z" />
    <glyph glyph-name="O" unicode="O" horiz-adv-x="875" 
d="M828 341c0 -175 -145 -350 -390 -350c-250 0 -391 176 -391 350c0 165 134 350 391 350s390 -186 390 -350zM653 341c0 125 -86 208 -215 208c-130 0 -216 -83 -216 -208s86 -208 216 -208c129 0 215 83 215 208z" />
    <glyph glyph-name="P" unicode="P" horiz-adv-x="656" 
d="M83 682h304c156 0 226 -109 226 -202c0 -96 -68 -206 -225 -206h-135v-274h-170v682zM253 557v-158h79c78 0 106 28 106 79c0 58 -33 79 -125 79h-60z" />
    <glyph glyph-name="Q" unicode="Q" horiz-adv-x="875" 
d="M827 -30l11 -14l-133 -113c-130 9 -265 73 -378 157c-128 23 -280 152 -280 337c0 175 149 354 393 354c257 0 389 -190 389 -348c0 -151 -103 -286 -254 -332c74 -43 182 -64 252 -41zM222 339c0 -126 86 -209 216 -209c121 0 216 75 216 209c0 137 -99 210 -216 210
c-130 0 -216 -84 -216 -210z" />
    <glyph glyph-name="R" unicode="R" horiz-adv-x="677" 
d="M76 682h305c140 0 223 -94 223 -196c0 -75 -39 -131 -117 -167c70 -35 91 -119 187 -319h-187c-73 146 -100 277 -192 277h-49v-277h-170v682zM246 557v-155h90c47 0 93 20 93 78c0 51 -33 77 -97 77h-86z" />
    <glyph glyph-name="S" unicode="S" horiz-adv-x="604" 
d="M534 638v-133c-99 44 -158 61 -216 61c-61 0 -100 -22 -100 -56c0 -103 347 -74 347 -312c0 -131 -110 -207 -262 -207c-119 0 -178 31 -246 66v147c98 -65 158 -88 233 -88c65 0 100 23 100 63c0 112 -347 71 -347 316c0 118 102 196 260 196c76 0 145 -16 231 -53z" />
    <glyph glyph-name="T" unicode="T" horiz-adv-x="719" 
d="M692 682v-125h-247v-557h-170v557h-247v125h664z" />
    <glyph glyph-name="U" unicode="U" horiz-adv-x="823" 
d="M582 682h170v-387c0 -226 -154 -304 -341 -304c-198 0 -341 92 -341 303v388h170v-392c0 -98 71 -157 169 -157c90 0 173 47 173 169v380z" />
    <glyph glyph-name="V" unicode="V" horiz-adv-x="719" 
d="M719 682l-315 -691h-74l-330 691h185l180 -389l171 389h183z" />
    <glyph glyph-name="W" unicode="W" horiz-adv-x="1167" 
d="M583 436l-211 -445h-73l-300 691h180l161 -377l175 377h137l175 -377l160 377h180l-299 -691h-73z" />
    <glyph glyph-name="X" unicode="X" horiz-adv-x="813" 
d="M779 682l-267 -329l296 -353h-220l-185 225l-182 -225h-217l289 353l-273 329h220l163 -201l160 201h216z" />
    <glyph glyph-name="Y" unicode="Y" horiz-adv-x="708" 
d="M269 0v319l-269 363h206l148 -214l149 214h205l-269 -363v-319h-170z" />
    <glyph glyph-name="Z" unicode="Z" horiz-adv-x="698" 
d="M666 682l-372 -557h372v-125h-662l375 557h-349v125h636z" />
    <glyph glyph-name="bracketleft" unicode="[" horiz-adv-x="438" 
d="M419 682v-109h-190v-685h190v-109h-335v903h335z" />
    <glyph glyph-name="backslash" unicode="\" horiz-adv-x="281" 
d="M279 -9h-101l-171 700h103z" />
    <glyph glyph-name="bracketright" unicode="]" horiz-adv-x="438" 
d="M19 -221v109h190v685h-190v109h335v-903h-335z" />
    <glyph glyph-name="asciicircum" unicode="^" horiz-adv-x="584" 
d="M56 292l184 390h108l179 -390h-139l-96 239l-96 -239h-140z" />
    <glyph glyph-name="underscore" unicode="_" horiz-adv-x="500" 
d="M-6 -75h512v-50h-512v50z" />
    <glyph glyph-name="quoteleft" unicode="&#x2018;" horiz-adv-x="271" 
d="M221 691v-31c-29 -26 -51 -81 -45 -129c35 -14 51 -36 51 -73c0 -46 -35 -79 -82 -79c-59 0 -100 47 -100 114c0 100 78 188 176 198z" />
    <glyph glyph-name="a" unicode="a" horiz-adv-x="531" 
d="M531 114v-81c-40 -24 -97 -42 -136 -42c-48 0 -71 15 -81 52c-56 -38 -102 -52 -152 -52c-74 0 -129 55 -129 113c0 110 81 132 274 192c3 43 -17 77 -80 77c-58 0 -124 -30 -170 -77v118c60 37 127 56 200 56c116 0 195 -39 195 -140v-210c0 -23 9 -32 24 -32
c10 0 21 2 55 26zM307 112v111c-86 -31 -127 -51 -127 -97c0 -27 21 -49 47 -49c27 0 56 13 80 35z" />
    <glyph glyph-name="b" unicode="b" horiz-adv-x="583" 
d="M203 682v-247c46 27 74 35 119 35c133 0 225 -97 225 -238c0 -142 -89 -241 -215 -241c-46 0 -89 15 -129 44v-35h-145v682h145zM203 341v-214c31 -27 57 -39 86 -39c68 0 111 53 111 146c0 98 -53 139 -113 139c-28 0 -50 -8 -84 -32z" />
    <glyph glyph-name="c" unicode="c" horiz-adv-x="500" 
d="M463 126v-104c-58 -21 -107 -31 -156 -31c-162 0 -267 94 -267 238c0 141 109 241 261 241c47 0 107 -12 155 -30v-108c-38 20 -82 31 -118 31c-87 0 -143 -52 -143 -133c0 -82 55 -136 138 -136c35 0 66 8 130 32z" />
    <glyph glyph-name="d" unicode="d" horiz-adv-x="583" 
d="M524 682v-682h-145v37c-41 -33 -79 -46 -128 -46c-124 0 -216 102 -216 240c0 141 92 239 224 239c42 0 81 -10 120 -29v241h145zM379 126v220c-21 15 -55 27 -81 27c-73 0 -116 -53 -116 -145c0 -84 43 -140 111 -140c31 0 56 11 86 38z" />
    <glyph glyph-name="e" unicode="e" horiz-adv-x="552" 
d="M510 143v-91c-83 -61 -170 -61 -206 -61c-162 0 -267 94 -267 238c0 141 101 241 243 241c134 0 245 -95 238 -263h-331c5 -82 61 -130 152 -130c58 0 103 17 171 66zM190 283h200c-6 63 -44 101 -100 101c-57 0 -94 -37 -100 -101z" />
    <glyph glyph-name="f" unicode="f" horiz-adv-x="302" 
d="M226 461h66v-99h-66v-362h-145v362h-66v99h66v23c0 136 85 207 202 207c28 0 66 -6 88 -9v-117c-38 5 -49 6 -65 6c-45 0 -80 -20 -80 -81v-29z" />
    <glyph glyph-name="g" unicode="g" horiz-adv-x="542" 
d="M530 461v-97h-66c16 -28 23 -50 23 -77c0 -41 -17 -76 -42 -101c-82 -82 -216 -34 -216 -88c0 -53 176 -7 252 -84c30 -30 37 -66 37 -89c0 -107 -95 -155 -244 -155c-194 0 -246 73 -246 134c0 39 21 89 123 115v2c-31 9 -56 27 -56 60c0 49 57 62 84 68v2
c-59 9 -129 57 -129 142c0 57 40 168 206 168h274zM185 291c0 -45 38 -83 84 -83s83 40 83 88c0 42 -33 79 -83 79c-48 0 -84 -37 -84 -84zM385 -86c0 33 -41 51 -113 51c-68 0 -110 -21 -110 -55c0 -35 42 -54 119 -54c64 0 104 27 104 58z" />
    <glyph glyph-name="h" unicode="h" horiz-adv-x="583" 
d="M207 682v-289h2c42 53 89 77 146 77c84 0 169 -51 169 -176v-294h-145v263c0 69 -30 101 -75 101c-34 0 -63 -21 -97 -70v-294h-145v682h145z" />
    <glyph glyph-name="i" unicode="i" horiz-adv-x="271" 
d="M208 461v-461h-145v461h145zM135 691c44 0 80 -36 80 -80s-36 -80 -80 -80s-80 36 -80 80s36 80 80 80z" />
    <glyph glyph-name="j" unicode="j" horiz-adv-x="271" 
d="M211 461v-474c0 -157 -100 -210 -174 -217l-46 131c53 9 75 46 75 121v439h145zM138 691c44 0 80 -36 80 -80s-36 -80 -80 -80s-80 36 -80 80s36 80 80 80z" />
    <glyph glyph-name="k" unicode="k" horiz-adv-x="552" 
d="M208 682v-449h2l179 228h170l-180 -228l188 -233h-178l-179 227h-2v-227h-145v682h145z" />
    <glyph glyph-name="l" unicode="l" horiz-adv-x="271" 
d="M208 682v-682h-145v682h145z" />
    <glyph glyph-name="m" unicode="m" horiz-adv-x="958" 
d="M208 461v-59c25 23 51 40 77 52c27 11 54 16 83 16c80 0 134 -32 166 -98c60 69 113 98 182 98c105 0 180 -69 180 -174v-296h-145v270c0 66 -32 103 -85 103c-42 0 -81 -27 -114 -78v-295h-145v273c0 75 -45 100 -88 100c-38 0 -76 -22 -111 -64v-309h-145v461h145z" />
    <glyph glyph-name="n" unicode="n" horiz-adv-x="583" 
d="M205 461v-66c46 53 91 75 150 75c72 0 168 -41 168 -177v-293h-145v281c0 65 -31 92 -72 92c-36 0 -63 -19 -101 -76v-297h-145v461h145z" />
    <glyph glyph-name="o" unicode="o" horiz-adv-x="594" 
d="M557 230c0 -183 -157 -239 -259 -239c-151 0 -261 95 -261 240c0 157 125 239 261 239c113 0 259 -63 259 -240zM402 234c0 90 -31 150 -104 150c-63 0 -106 -49 -106 -153c0 -119 51 -154 106 -154c68 0 104 56 104 157z" />
    <glyph glyph-name="p" unicode="p" horiz-adv-x="583" 
d="M202 461v-40c41 34 82 49 132 49c120 0 214 -102 214 -234c0 -148 -90 -245 -227 -245c-41 0 -85 12 -119 32v-253h-145v691h145zM202 330v-212c29 -21 55 -30 84 -30c71 0 115 54 115 140c0 88 -40 139 -109 139c-31 0 -54 -9 -90 -37z" />
    <glyph glyph-name="q" unicode="q" horiz-adv-x="583" 
d="M380 461h145v-691h-145v253c-33 -20 -77 -32 -119 -32c-136 0 -226 98 -226 245c0 134 92 234 214 234c49 0 91 -15 131 -49v40zM380 118v212c-35 28 -58 37 -90 37c-69 0 -108 -51 -108 -139c0 -86 43 -140 114 -140c30 0 55 9 84 30z" />
    <glyph glyph-name="r" unicode="r" horiz-adv-x="448" 
d="M209 461v-132h2c43 96 91 141 147 141c29 0 54 -11 96 -42l-40 -128c-38 24 -63 34 -86 34c-53 0 -87 -50 -119 -135v-199h-145v461h145z" />
    <glyph glyph-name="s" unicode="s" horiz-adv-x="427" 
d="M377 436v-103c-63 39 -125 51 -154 51c-19 0 -52 -4 -52 -36c0 -51 229 -53 229 -207c0 -96 -68 -150 -188 -150c-74 0 -145 23 -165 34v102c47 -20 94 -39 149 -39c43 0 70 13 70 34c0 67 -229 55 -229 206c0 85 77 142 191 142c58 0 101 -10 149 -34z" />
    <glyph glyph-name="t" unicode="t" horiz-adv-x="406" 
d="M391 461v-99h-168v-190c0 -45 26 -74 71 -74c30 0 58 7 97 27v-105c-51 -21 -89 -29 -134 -29c-96 0 -179 44 -179 173v198h-66v28l193 216h18v-145h168z" />
    <glyph glyph-name="u" unicode="u" horiz-adv-x="583" 
d="M378 0v66c-46 -53 -91 -75 -149 -75c-91 0 -169 56 -169 175v295h145v-285c0 -65 35 -88 73 -88c44 0 84 34 99 79v294h146v-461h-145z" />
    <glyph glyph-name="v" unicode="v" horiz-adv-x="510" 
d="M215 -9l-213 470h155l98 -254l99 254h154l-212 -470h-81z" />
    <glyph glyph-name="w" unicode="w" horiz-adv-x="781" 
d="M391 242l-116 -251h-68l-208 470h148l97 -254l103 254h88l102 -254l97 254h148l-207 -470h-69z" />
    <glyph glyph-name="x" unicode="x" horiz-adv-x="552" 
d="M535 461l-182 -225l196 -236h-168l-109 143l-105 -143h-163l188 236l-188 225h169l99 -133l94 133h169z" />
    <glyph glyph-name="y" unicode="y" horiz-adv-x="510" 
d="M509 461l-309 -682h-154l135 296l-180 386h155l97 -237l104 237h152z" />
    <glyph glyph-name="z" unicode="z" horiz-adv-x="521" 
d="M42 461h450l-236 -362h236v-99h-473l237 362h-214v99z" />
    <glyph glyph-name="braceleft" unicode="{" horiz-adv-x="385" 
d="M29 314c85 1 107 56 107 149v79c0 135 65 182 183 182h44v-117h-6c-88 0 -95 -8 -95 -111c0 -113 -4 -182 -85 -239c81 -57 85 -126 85 -239c0 -103 7 -111 95 -111h6v-117h-44c-118 0 -183 47 -183 182v79c0 93 -22 148 -107 149v114z" />
    <glyph glyph-name="bar" unicode="|" horiz-adv-x="281" 
d="M86 -250v1000h109v-1000h-109z" />
    <glyph glyph-name="braceright" unicode="}" horiz-adv-x="385" 
d="M356 200c-85 -1 -107 -56 -107 -149v-79c0 -135 -65 -182 -183 -182h-44v117h6c88 0 95 8 95 111c0 113 4 182 85 239c-81 57 -85 126 -85 239c0 103 -7 111 -95 111h-6v117h44c118 0 183 -47 183 -182v-79c0 -93 22 -148 107 -149v-114z" />
    <glyph glyph-name="asciitilde" unicode="~" horiz-adv-x="584" 
d="M16 175v131c62 51 108 72 160 72c86 0 169 -78 245 -78c44 0 83 20 146 74v-130c-36 -36 -104 -72 -158 -72c-81 0 -179 79 -241 79c-46 0 -84 -19 -152 -76z" />
    <glyph glyph-name="exclamdown" unicode="&#xa1;" horiz-adv-x="271" 
d="M135 255c21 0 26 -5 35 -42c11 -46 49 -225 49 -335c0 -69 -30 -108 -84 -108c-53 0 -83 38 -83 108c0 83 38 299 50 341c9 32 14 36 33 36zM135 296c-48 0 -87 39 -87 87s39 87 87 87s87 -39 87 -87s-39 -87 -87 -87z" />
    <glyph glyph-name="cent" unicode="&#xa2;" horiz-adv-x="500" 
d="M471 632l-55 -177c16 -5 26 -8 39 -14v-109c-26 14 -38 19 -69 28l-83 -262c58 -8 115 9 159 31v-107c-59 -22 -100 -31 -192 -31l-57 -180h-71l60 189c-107 35 -161 119 -161 227c0 148 117 262 307 240l52 165h71zM240 124l76 239c-74 -5 -124 -59 -124 -133
c0 -44 17 -81 48 -106z" />
    <glyph glyph-name="sterling" unicode="&#xa3;" horiz-adv-x="521" 
d="M336 395v-119h-97l-26 -130c13 4 20 5 31 5c63 0 93 -22 155 -22c35 0 49 3 81 17v-135c-38 -17 -54 -20 -89 -20c-38 0 -113 24 -188 24c-60 0 -100 -9 -156 -24c1 43 31 205 52 285h-45v119h77c28 95 57 178 108 229c50 50 118 74 176 65l58 -131
c-95 22 -167 -13 -201 -163h64z" />
    <glyph glyph-name="fraction" unicode="&#x2044;" horiz-adv-x="219" 
d="M395 691l-478 -718h-94l479 718h93z" />
    <glyph glyph-name="yen" unicode="&#xa5;" horiz-adv-x="552" 
d="M206 133h-181v109h181v58h-181v109h127l-151 307h151l122 -277h2l125 277h151l-154 -307h129v-109h-183v-58h183v-109h-183v-133h-138v133z" />
    <glyph glyph-name="florin" unicode="&#x192;" horiz-adv-x="552" 
d="M135 415l18 103h98l15 83c15 85 52 127 161 127c43 0 91 -7 131 -20l-27 -110c-31 9 -55 13 -77 13c-38 0 -51 -13 -60 -65l-5 -28h101l-18 -103h-100l-85 -485c-16 -93 -52 -140 -160 -140c-46 0 -101 8 -137 19l28 108c33 -7 62 -10 83 -10c38 0 47 13 59 82l73 426
h-98z" />
    <glyph glyph-name="section" unicode="&#xa7;" horiz-adv-x="521" 
d="M495 206c0 -71 -24 -118 -89 -181c36 -48 46 -73 46 -113c0 -88 -73 -142 -194 -142c-110 0 -190 45 -190 108c0 38 35 72 74 72c21 0 36 -8 44 -16c36 -36 6 -78 69 -78c34 0 57 19 57 47c0 97 -287 152 -287 347c0 67 29 127 88 185c-35 50 -47 68 -47 105
c0 94 79 151 201 151c129 0 186 -51 186 -109c0 -41 -33 -74 -74 -74c-20 0 -33 6 -45 18c-27 27 -9 79 -69 79c-33 0 -58 -22 -58 -50c0 -84 288 -149 288 -349zM187 369c-23 -28 -34 -50 -34 -80c0 -66 67 -109 181 -196c25 27 34 50 34 76c0 73 -70 112 -181 200z" />
    <glyph glyph-name="currency" unicode="&#xa4;" horiz-adv-x="552" 
d="M447 87l-66 66c-24 -15 -61 -28 -105 -28c-33 0 -70 7 -104 27l-65 -65l-85 85l65 65c-17 27 -27 65 -27 105s11 75 27 105l-65 65l83 83l64 -64c31 14 62 27 107 27c38 0 79 -12 105 -27l65 65l85 -85l-65 -65c17 -31 27 -62 27 -104c0 -40 -10 -72 -28 -107l65 -65z
M276 441c-55 0 -99 -44 -99 -99s44 -100 99 -100s100 45 100 100s-45 99 -100 99z" />
    <glyph glyph-name="quotesingle" unicode="'" horiz-adv-x="240" 
d="M188 595l-24 -134h-87l-24 134v121h135v-121z" />
    <glyph glyph-name="quotedblleft" unicode="&#x201c;" horiz-adv-x="563" 
d="M511 691v-31c-29 -26 -51 -81 -45 -129c35 -14 51 -36 51 -73c0 -46 -35 -79 -82 -79c-59 0 -100 47 -100 114c0 100 78 188 176 198zM233 691v-31c-29 -26 -51 -81 -45 -129c35 -14 51 -36 51 -73c0 -46 -35 -79 -82 -79c-59 0 -100 47 -100 114c0 100 78 188 176 198z
" />
    <glyph glyph-name="guillemotleft" unicode="&#xab;" horiz-adv-x="594" 
d="M424 229l159 -222h-143l-161 222l161 222h143zM154 229l159 -222h-143l-161 222l161 222h143z" />
    <glyph glyph-name="guilsinglleft" unicode="&#x2039;" horiz-adv-x="323" 
d="M154 229l159 -222h-143l-161 222l161 222h143z" />
    <glyph glyph-name="guilsinglright" unicode="&#x203a;" horiz-adv-x="323" 
d="M169 229l-159 222h143l161 -222l-161 -222h-143z" />
    <glyph glyph-name="fi" unicode="&#xfb01;" horiz-adv-x="594" 
d="M315 571c-74 0 -89 -33 -89 -110h93v-99h-93v-362h-145v362h-61v99h61c0 160 73 230 205 230c25 0 42 -2 65 -9v-114c-21 3 -28 3 -36 3zM460 691c43 0 78 -35 78 -78s-35 -79 -78 -79s-79 36 -79 79s36 78 79 78zM532 461v-461h-145v461h145z" />
    <glyph glyph-name="fl" unicode="&#xfb02;" horiz-adv-x="594" 
d="M532 682v-682h-145v682h145zM319 461v-99h-93v-362h-145v362h-60v99h60c0 142 55 230 205 230c25 0 42 -2 65 -9v-114c-21 3 -28 3 -36 3c-74 0 -89 -33 -89 -110h93z" />
    <glyph glyph-name="endash" unicode="&#x2013;" horiz-adv-x="500" 
d="M506 297v-132h-512v132h512z" />
    <glyph glyph-name="dagger" unicode="&#x2020;" horiz-adv-x="510" 
d="M226 381l-174 -38c-18 -4 -27 3 -27 38v62c0 30 6 44 27 39l174 -39l-36 220c-3 21 3 28 36 28h59c32 0 38 -7 35 -27l-35 -221l173 39c18 4 28 -5 28 -39v-62c0 -31 -8 -42 -27 -38l-174 38l54 -588c2 -17 -11 -23 -32 -23h-104c-24 0 -34 8 -32 26z" />
    <glyph glyph-name="daggerdbl" unicode="&#x2021;" horiz-adv-x="510" 
d="M445 71c30 7 40 -8 40 -62c0 -72 -12 -71 -32 -66l-173 39l41 -172c7 -29 -6 -40 -66 -40c-64 0 -72 13 -66 40l40 172l-172 -39c-23 -5 -32 -1 -32 69c0 52 10 66 40 59l164 -39l-40 199l40 198l-164 -39c-24 -6 -40 -3 -40 64c0 58 10 69 24 66l180 -41l-40 172
c-7 30 6 40 66 40c56 0 73 -10 67 -37l-42 -175l173 39c22 5 32 3 32 -68c0 -58 -14 -66 -40 -60l-165 39l41 -198l-41 -199z" />
    <glyph glyph-name="periodcentered" unicode="&#xb7;" horiz-adv-x="271" 
d="M135 432c48 0 87 -39 87 -87s-39 -87 -87 -87s-87 39 -87 87s39 87 87 87z" />
    <glyph glyph-name="paragraph" unicode="&#xb6;" horiz-adv-x="552" 
d="M310 -197h-119v511c-121 9 -192 83 -192 198c0 107 62 204 218 204h334v-128h-55v-785h-119v785h-67v-785z" />
    <glyph glyph-name="bullet" unicode="&#x2022;" horiz-adv-x="354" 
d="M176 485c80 0 144 -64 144 -144s-64 -144 -144 -144s-144 64 -144 144s64 144 144 144z" />
    <glyph glyph-name="quotesinglbase" unicode="&#x201a;" horiz-adv-x="271" 
d="M50 -169v31c29 26 51 81 45 129c-35 14 -51 36 -51 73c0 46 35 79 82 79c59 0 100 -47 100 -114c0 -100 -78 -188 -176 -198z" />
    <glyph glyph-name="quotedblbase" unicode="&#x201e;" horiz-adv-x="563" 
d="M336 -169v31c29 26 51 81 45 129c-35 14 -51 36 -51 73c0 46 35 79 82 79c59 0 100 -47 100 -114c0 -100 -78 -188 -176 -198zM57 -169v31c29 26 51 81 45 129c-35 14 -51 36 -51 73c0 46 35 79 82 79c59 0 100 -47 100 -114c0 -100 -78 -188 -176 -198z" />
    <glyph glyph-name="quotedblright" unicode="&#x201d;" horiz-adv-x="563" 
d="M330 379v31c29 26 51 81 45 129c-35 14 -51 36 -51 73c0 46 35 79 82 79c59 0 100 -47 100 -114c0 -100 -78 -188 -176 -198zM52 379v31c29 26 51 81 45 129c-35 14 -51 36 -51 73c0 46 35 79 82 79c59 0 100 -47 100 -114c0 -100 -78 -188 -176 -198z" />
    <glyph glyph-name="guillemotright" unicode="&#xbb;" horiz-adv-x="594" 
d="M439 229l-159 222h143l161 -222l-161 -222h-143zM171 229l-159 222h143l161 -222l-161 -222h-143z" />
    <glyph glyph-name="ellipsis" unicode="&#x2026;" horiz-adv-x="1000" 
d="M833 165c48 0 87 -39 87 -87s-39 -87 -87 -87s-87 39 -87 87s39 87 87 87zM500 165c48 0 87 -39 87 -87s-39 -87 -87 -87s-87 39 -87 87s39 87 87 87zM167 165c48 0 87 -39 87 -87s-39 -87 -87 -87s-87 39 -87 87s39 87 87 87z" />
    <glyph glyph-name="perthousand" unicode="&#x2030;" horiz-adv-x="1083" 
d="M254 530c0 41 -32 75 -71 75c-40 0 -71 -32 -71 -75c0 -40 32 -75 71 -75c40 0 71 33 71 75zM344 530c0 -88 -72 -161 -161 -161s-161 73 -161 161c0 90 72 161 161 161s161 -71 161 -161zM636 691l-477 -699h-83l480 699h80zM1061 152c0 -88 -72 -161 -161 -161
s-161 73 -161 161c0 90 72 161 161 161s161 -71 161 -161zM971 152c0 41 -32 75 -71 75c-40 0 -71 -32 -71 -75c0 -40 32 -75 71 -75c40 0 71 33 71 75zM692 152c0 -88 -72 -161 -161 -161s-161 73 -161 161c0 90 72 161 161 161s161 -71 161 -161zM602 152
c0 41 -32 75 -71 75c-40 0 -71 -32 -71 -75c0 -40 32 -75 71 -75c40 0 71 33 71 75z" />
    <glyph glyph-name="questiondown" unicode="&#xbf;" horiz-adv-x="375" 
d="M350 -87l-25 -123c-44 -15 -76 -20 -116 -20c-103 0 -165 56 -165 140c0 153 145 199 145 318v12c0 15 8 16 31 16c13 0 21 -3 26 -8c8 -8 28 -63 28 -104c0 -98 -78 -154 -78 -215c0 -32 22 -51 59 -51c33 0 51 7 86 35h9zM217 296c-48 0 -87 39 -87 87s39 87 87 87
s87 -39 87 -87s-39 -87 -87 -87z" />
    <glyph glyph-name="grave" unicode="`" 
d="M8 676h165l74 -146h-74z" />
    <glyph glyph-name="acute" unicode="&#xb4;" 
d="M326 676l-165 -146h-74l74 146h165z" />
    <glyph glyph-name="circumflex" unicode="&#x2c6;" 
d="M235 682l99 -175h-89l-78 87l-80 -87h-88l99 175h137z" />
    <glyph glyph-name="tilde" unicode="&#x2dc;" 
d="M293 671h68c-6 -96 -48 -151 -117 -151c-57 0 -120 54 -161 54c-24 0 -41 -19 -45 -52h-66c7 94 51 149 119 149c59 0 115 -54 158 -54c24 0 38 18 44 54z" />
    <glyph glyph-name="macron" unicode="&#xaf;" 
d="M360 643v-97h-387v97h387z" />
    <glyph glyph-name="breve" unicode="&#x2d8;" 
d="M250 721h99c-3 -36 -21 -79 -52 -112c-30 -34 -74 -59 -128 -59c-94 0 -163 63 -185 171h100c7 -21 17 -36 31 -47c13 -10 30 -15 51 -15c43 0 73 22 84 62z" />
    <glyph glyph-name="dotaccent" unicode="&#x2d9;" 
d="M167 659c36 0 65 -29 65 -65s-29 -65 -65 -65s-65 29 -65 65s29 65 65 65z" />
    <glyph glyph-name="dieresis" unicode="&#xa8;" 
d="M65 659c36 0 65 -29 65 -65s-29 -65 -65 -65s-65 29 -65 65s29 65 65 65zM268 659c36 0 65 -29 65 -65s-29 -65 -65 -65s-65 29 -65 65s29 65 65 65z" />
    <glyph glyph-name="ring" unicode="&#x2da;" 
d="M167 664c-30 0 -54 -24 -54 -54s24 -55 54 -55s55 25 55 55s-25 54 -55 54zM167 711c56 0 101 -45 101 -101s-45 -102 -101 -102s-102 46 -102 102s46 101 102 101z" />
    <glyph glyph-name="cedilla" unicode="&#xb8;" 
d="M234 8l-13 -31c42 -15 62 -40 62 -73c0 -48 -37 -83 -109 -83c-37 0 -56 3 -74 9v51c64 -2 76 11 76 31c0 11 -8 28 -41 28l39 68h60z" />
    <glyph glyph-name="hungarumlaut" unicode="&#x2dd;" 
d="M378 676l-131 -146h-71l52 146h150zM192 676l-131 -146h-71l52 146h150z" />
    <glyph glyph-name="ogonek" unicode="&#x2db;" 
d="M254 -93v-80c-24 -10 -50 -15 -77 -15c-63 0 -102 43 -102 113c0 32 7 57 25 84h79c-9 -22 -16 -36 -16 -56c0 -32 23 -55 53 -55c9 0 26 5 38 9z" />
    <glyph glyph-name="caron" unicode="&#x2c7;" 
d="M98 507l-99 175h89l78 -87l80 87h88l-99 -175h-137z" />
    <glyph glyph-name="emdash" unicode="&#x2014;" horiz-adv-x="1000" 
d="M1006 297v-132h-1012v132h1012z" />
    <glyph glyph-name="AE" unicode="&#xc6;" horiz-adv-x="1073" 
d="M1008 682v-125h-318v-149h304v-125h-304v-158h327v-125h-497v283h-182l-169 -283h-175l408 682h606zM518 593l-105 -185h107v185h-2z" />
    <glyph glyph-name="ordfeminine" unicode="&#xaa;" horiz-adv-x="354" 
d="M353 486v-57c-29 -16 -65 -27 -93 -27c-30 0 -49 10 -56 27c-33 -19 -62 -27 -94 -27c-50 0 -88 32 -88 75c0 71 102 89 176 110c0 30 -13 41 -45 41c-41 0 -79 -17 -115 -54v82c40 23 85 35 134 35c53 0 131 -14 131 -86v-119c0 -14 2 -18 9 -18c6 0 23 7 41 18z
M198 477v59c-56 -18 -70 -28 -70 -50c0 -15 10 -26 25 -26c16 0 32 7 45 17z" />
    <glyph glyph-name="Lslash" unicode="&#x141;" horiz-adv-x="615" 
d="M596 125v-125h-520v218l-94 -77v137l94 77v327h170v-202l140 115v-138l-140 -115v-217h350z" />
    <glyph glyph-name="Oslash" unicode="&#xd8;" horiz-adv-x="875" 
d="M197 61l-110 -98l-61 76l100 87c-46 55 -79 133 -79 215c0 165 135 350 392 350c95 0 174 -26 240 -71l84 76l69 -69l-83 -72c47 -56 79 -132 79 -214c0 -175 -144 -350 -389 -350c-97 0 -173 25 -242 70zM628 447l-314 -282c28 -19 72 -32 125 -32c129 0 214 83 214 208
c0 38 -9 79 -25 106zM247 236l315 281c-33 20 -72 32 -123 32c-130 0 -217 -83 -217 -208c0 -34 6 -72 25 -105z" />
    <glyph glyph-name="OE" unicode="&#x152;" horiz-adv-x="1094" 
d="M1034 682v-125h-319v-143h305v-125h-305v-164h326v-125h-613c-220 0 -381 121 -381 343c0 204 143 339 380 339h607zM545 557h-82c-156 0 -241 -101 -241 -216c0 -117 87 -216 241 -216h82v432z" />
    <glyph glyph-name="ordmasculine" unicode="&#xba;" horiz-adv-x="396" 
d="M371 548c0 -86 -70 -146 -172 -146c-101 0 -173 60 -173 143c0 84 74 146 173 146c101 0 172 -62 172 -143zM259 551c0 55 -20 81 -62 81c-40 0 -59 -28 -59 -88c0 -54 21 -83 62 -83c40 0 59 30 59 90z" />
    <glyph glyph-name="ae" unicode="&#xe6;" horiz-adv-x="781" 
d="M741 149v-95c-58 -43 -123 -63 -200 -63c-75 0 -143 23 -187 63c-58 -44 -115 -63 -187 -63c-82 0 -131 53 -131 115c0 116 126 147 278 189c5 49 -31 78 -82 78c-54 0 -128 -33 -176 -78v115c65 38 129 60 190 60c60 0 97 -13 150 -51c40 35 82 51 137 51
c122 0 225 -104 215 -262h-289c-4 -83 44 -131 114 -131c65 0 121 30 168 72zM459 284h150c-5 66 -32 100 -77 100c-46 0 -71 -35 -73 -100zM314 110v113c-87 -24 -131 -57 -131 -98c0 -28 20 -48 46 -48c24 0 49 10 85 33z" />
    <glyph glyph-name="dotlessi" unicode="&#x131;" horiz-adv-x="271" 
d="M208 461v-461h-145v461h145z" />
    <glyph glyph-name="lslash" unicode="&#x142;" horiz-adv-x="271" 
d="M208 682v-224l77 64v-116l-77 -64v-342h-145v239l-77 -64v115l77 64v328h145z" />
    <glyph glyph-name="oslash" unicode="&#xf8;" horiz-adv-x="594" 
d="M198 166l165 195c-16 14 -40 23 -65 23c-63 0 -106 -49 -106 -153c0 -28 2 -48 6 -65zM165 21l-65 -75l-51 45l59 69c-40 38 -71 94 -71 171c0 157 125 239 261 239c43 0 91 -9 132 -29l70 81l53 -51l-62 -73c38 -36 66 -89 66 -168c0 -183 -157 -239 -259 -239
c-55 0 -102 13 -133 30zM397 291l-164 -191c14 -14 41 -23 65 -23c68 0 104 56 104 157c0 19 -1 38 -5 57z" />
    <glyph glyph-name="oe" unicode="&#x153;" horiz-adv-x="875" 
d="M837 149v-99c-49 -34 -114 -59 -182 -59c-64 0 -125 20 -179 59c-51 -38 -115 -59 -179 -59c-147 0 -261 103 -261 242c0 136 112 237 263 237c64 0 109 -14 170 -55c53 43 84 55 139 55c134 0 244 -93 237 -262h-297c-3 -78 52 -131 122 -131c55 0 117 25 167 72z
M548 284h164c0 52 -29 100 -85 100c-47 0 -79 -40 -79 -100zM403 240c0 92 -39 144 -108 144s-104 -53 -104 -155c0 -101 35 -152 106 -152c72 0 106 51 106 163z" />
    <glyph glyph-name="germandbls" unicode="&#xdf;" horiz-adv-x="604" 
d="M65 0v476c0 160 108 215 221 215c144 0 238 -68 238 -173c0 -58 -34 -109 -88 -132c76 -29 116 -92 116 -186c0 -124 -82 -209 -202 -209c-24 0 -46 3 -68 9v93c9 -3 19 -7 27 -7c59 0 96 52 96 132c0 85 -40 135 -117 131v72c64 -3 89 39 89 92c0 58 -31 92 -82 92
c-68 0 -85 -54 -85 -127v-478h-145z" />
    <glyph glyph-name="divide" unicode="&#xf7;" horiz-adv-x="584" 
d="M292 229c40 0 73 -33 73 -73s-33 -73 -73 -73s-73 33 -73 73s33 73 73 73zM42 289v128h500v-128h-500zM292 623c40 0 73 -33 73 -73s-33 -73 -73 -73s-73 33 -73 73s33 73 73 73z" />
    <glyph glyph-name="threequarters" unicode="&#xbe;" horiz-adv-x="896" 
d="M121 482v67c35 3 55 17 55 40c0 22 -21 38 -52 38c-20 0 -52 -9 -79 -22v69c31 12 62 17 98 17c79 0 135 -36 135 -88c0 -34 -19 -61 -57 -81c47 -19 68 -46 68 -89c0 -63 -61 -106 -151 -106c-35 0 -58 6 -103 24v76c39 -24 62 -32 93 -32c33 0 55 16 55 41
c0 28 -21 43 -62 46zM696 691l-478 -718h-94l478 718h94zM757 360v-212h28v-62h-28v-86h-101v86h-156v59l192 215h65zM656 226l-71 -78h71v78z" />
    <glyph glyph-name="onequarter" unicode="&#xbc;" horiz-adv-x="896" 
d="M734 360v-212h28v-62h-28v-86h-101v86h-156v59l192 215h65zM633 226l-71 -78h71v78zM222 691v-359h-104v359h104zM673 691l-478 -718h-94l478 718h94z" />
    <glyph glyph-name="onesuperior" unicode="&#xb9;" 
d="M219 691v-359h-104v359h104z" />
    <glyph glyph-name="multiply" unicode="&#xd7;" horiz-adv-x="584" 
d="M54 205l148 148l-148 148l90 90l148 -148l148 148l90 -90l-148 -148l148 -148l-90 -90l-148 148l-148 -148z" />
    <glyph glyph-name="registered" unicode="&#xae;" horiz-adv-x="740" 
d="M546 156h-99l-32 65c-14 28 -38 62 -54 78s-30 20 -65 20h-15v-163h-80v397h196c85 0 125 -48 125 -111c0 -60 -40 -103 -107 -111v-2c34 -12 45 -23 85 -93zM281 382h83c55 0 73 27 73 55c0 35 -28 54 -82 54h-74v-109zM370 656c-166 0 -300 -134 -300 -300
s134 -301 300 -301s301 135 301 301s-135 300 -301 300zM370 730c207 0 374 -167 374 -374s-167 -374 -374 -374s-374 167 -374 374s167 374 374 374z" />
    <glyph glyph-name="Thorn" unicode="&#xde;" horiz-adv-x="656" 
d="M83 682h170v-137h134c155 0 226 -109 226 -202c0 -96 -68 -206 -225 -206h-135v-137h-170v682zM253 420v-158h79c78 0 106 28 106 79c0 58 -33 79 -125 79h-60z" />
    <glyph glyph-name="brokenbar" unicode="&#xa6;" horiz-adv-x="281" 
d="M86 -175v350h109v-350h-109zM86 325v350h109v-350h-109z" />
    <glyph glyph-name="Eth" unicode="&#xd0;" horiz-adv-x="802" 
d="M75 682h301c249 0 377 -155 377 -342c0 -196 -124 -340 -396 -340h-282v296h-83v91h83v295zM245 557v-170h152v-91h-152v-171h111c171 0 222 116 222 216c0 117 -63 216 -224 216h-109z" />
    <glyph glyph-name="onehalf" unicode="&#xbd;" horiz-adv-x="896" 
d="M815 76v-76h-278v13c104 116 156 181 156 230c0 27 -20 47 -48 47c-30 0 -62 -16 -103 -51v85c48 26 79 35 118 35c83 0 134 -39 134 -101c0 -48 -36 -102 -106 -182h127zM673 691l-478 -718h-94l478 718h94zM222 691v-359h-104v359h104z" />
    <glyph glyph-name="minus" unicode="&#x2212;" horiz-adv-x="584" 
d="M42 289v128h500v-128h-500z" />
    <glyph glyph-name="ccedilla" unicode="&#xe7;" horiz-adv-x="500" 
d="M463 126v-104c-58 -21 -103 -31 -166 -31l-6 -14c42 -15 62 -40 62 -73c0 -48 -37 -83 -109 -83c-37 0 -56 3 -74 9v51c64 -2 76 11 76 31c0 11 -8 28 -41 28l33 58c-122 22 -198 108 -198 231c0 141 109 241 261 241c47 0 107 -12 155 -30v-108c-38 20 -82 31 -118 31
c-87 0 -143 -52 -143 -133c0 -82 55 -136 138 -136c35 0 66 8 130 32z" />
    <glyph glyph-name="eth" unicode="&#xf0;" horiz-adv-x="615" 
d="M411 234c0 90 -31 150 -104 150c-63 0 -106 -49 -106 -153c0 -119 51 -154 106 -154c68 0 104 56 104 157zM536 629l-100 -35c90 -89 130 -206 130 -324c0 -223 -157 -279 -259 -279c-151 0 -261 95 -261 240c0 133 101 239 232 239c38 0 64 -5 111 -36l2 1
c-13 35 -48 77 -86 112l-145 -51l-22 60l110 39c-19 14 -37 25 -52 32l91 64c33 -14 63 -30 90 -49l137 49z" />
    <glyph glyph-name="plusminus" unicode="&#xb1;" horiz-adv-x="584" 
d="M42 0v128h500v-128h-500zM42 360v128h186v186h128v-186h186v-128h-186v-186h-128v186h-186z" />
    <glyph glyph-name="Ccedilla" unicode="&#xc7;" horiz-adv-x="771" 
d="M712 208v-149c-95 -49 -161 -68 -283 -68l-8 -18c42 -15 62 -40 62 -73c0 -48 -37 -83 -109 -83c-37 0 -56 3 -74 9v51c64 -2 76 11 76 31c0 11 -8 28 -41 28l35 61c-216 28 -323 183 -323 342c0 182 149 352 410 352c95 0 180 -20 247 -60v-152c-75 42 -151 70 -235 70
c-145 0 -247 -86 -247 -207c0 -122 101 -209 243 -209c89 0 149 28 247 75z" />
    <glyph glyph-name="thorn" unicode="&#xfe;" horiz-adv-x="583" 
d="M202 682v-261c41 34 82 49 132 49c120 0 214 -102 214 -234c0 -148 -90 -245 -227 -245c-41 0 -85 12 -119 32v-253h-145v912h145zM202 330v-212c29 -21 55 -30 84 -30c71 0 115 54 115 140c0 88 -40 139 -109 139c-31 0 -54 -9 -90 -37z" />
    <glyph glyph-name="copyright" unicode="&#xa9;" horiz-adv-x="740" 
d="M460 301l79 -27c-25 -82 -83 -126 -164 -126c-115 0 -189 80 -189 205c0 130 73 211 190 211c82 0 134 -38 163 -119l-79 -19c-18 47 -45 68 -87 68c-64 0 -101 -50 -101 -138c0 -87 36 -139 97 -139c45 0 75 28 91 84zM370 656c-166 0 -300 -134 -300 -300
s134 -301 300 -301s301 135 301 301s-135 300 -301 300zM370 730c207 0 374 -167 374 -374s-167 -374 -374 -374s-374 167 -374 374s167 374 374 374z" />
    <glyph glyph-name="logicalnot" unicode="&#xac;" horiz-adv-x="584" 
d="M413 116v213h-371v128h499v-341h-128z" />
    <glyph glyph-name="twosuperior" unicode="&#xb2;" 
d="M311 408v-76h-278v13c104 116 156 181 156 230c0 27 -20 47 -48 47c-30 0 -62 -16 -103 -51v85c48 26 79 35 118 35c83 0 134 -39 134 -101c0 -48 -36 -102 -106 -182h127z" />
    <glyph glyph-name="threesuperior" unicode="&#xb3;" 
d="M118 482v67c35 3 55 17 55 40c0 22 -21 38 -52 38c-20 0 -52 -9 -79 -22v69c31 12 62 17 98 17c79 0 135 -36 135 -88c0 -34 -19 -61 -57 -81c47 -19 68 -46 68 -89c0 -63 -61 -106 -151 -106c-35 0 -58 6 -103 24v76c39 -24 62 -32 93 -32c33 0 55 16 55 41
c0 28 -21 43 -62 46z" />
    <glyph glyph-name="trademark" unicode="&#x2122;" horiz-adv-x="1000" 
d="M229 316v330h-123v70h324v-70h-120v-330h-81zM478 316v400h127l72 -276h2l72 276h127v-400h-77v319h-2l-85 -319h-73l-84 319h-2v-319h-77z" />
    <glyph glyph-name="degree" unicode="&#xb0;" horiz-adv-x="396" 
d="M198 728c86 0 156 -70 156 -156s-70 -156 -156 -156s-156 70 -156 156s70 156 156 156zM198 642c-39 0 -70 -31 -70 -70s31 -70 70 -70s70 31 70 70s-31 70 -70 70z" />
    <glyph glyph-name="mu" unicode="&#xb5;" horiz-adv-x="615" 
d="M68 461h145v-225c0 -86 23 -148 92 -148c59 0 96 49 96 130v243h145v-461h-135v60h-2c-16 -47 -60 -69 -99 -69c-44 0 -78 25 -95 65h-2v-232h-145v637z" />
    <glyph glyph-name="Aacute" unicode="&#xc1;" horiz-adv-x="781" 
d="M475 682l303 -682h-183l-56 135h-305l-51 -135h-180l275 682h197zM489 254l-110 265l-100 -265h210zM550 894l-165 -146h-74l74 146h165z" />
    <glyph glyph-name="Acircumflex" unicode="&#xc2;" horiz-adv-x="781" 
d="M475 682l303 -682h-183l-56 135h-305l-51 -135h-180l275 682h197zM489 254l-110 265l-100 -265h210zM459 900l99 -175h-89l-78 87l-80 -87h-88l99 175h137z" />
    <glyph glyph-name="Adieresis" unicode="&#xc4;" horiz-adv-x="781" 
d="M475 682l303 -682h-183l-56 135h-305l-51 -135h-180l275 682h197zM489 254l-110 265l-100 -265h210zM289 877c36 0 65 -29 65 -65s-29 -65 -65 -65s-65 29 -65 65s29 65 65 65zM492 877c36 0 65 -29 65 -65s-29 -65 -65 -65s-65 29 -65 65s29 65 65 65z" />
    <glyph glyph-name="Agrave" unicode="&#xc0;" horiz-adv-x="781" 
d="M475 682l303 -682h-183l-56 135h-305l-51 -135h-180l275 682h197zM489 254l-110 265l-100 -265h210zM232 894h165l74 -146h-74z" />
    <glyph glyph-name="Aring" unicode="&#xc5;" horiz-adv-x="781" 
d="M475 682l303 -682h-183l-56 135h-305l-51 -135h-180l275 682h197zM489 254l-110 265l-100 -265h210zM391 882c-30 0 -54 -24 -54 -54s24 -55 54 -55s55 25 55 55s-25 54 -55 54zM391 929c56 0 101 -45 101 -101s-45 -102 -101 -102s-102 46 -102 102s46 101 102 101z" />
    <glyph glyph-name="Atilde" unicode="&#xc3;" horiz-adv-x="781" 
d="M475 682l303 -682h-183l-56 135h-305l-51 -135h-180l275 682h197zM489 254l-110 265l-100 -265h210zM517 889h68c-6 -96 -48 -151 -117 -151c-57 0 -120 54 -161 54c-24 0 -41 -19 -45 -52h-66c7 94 51 149 119 149c59 0 115 -54 158 -54c24 0 38 18 44 54z" />
    <glyph glyph-name="Eacute" unicode="&#xc9;" horiz-adv-x="635" 
d="M581 125v-125h-503v682h496v-125h-326v-143h311v-125h-311v-164h333zM477 894l-165 -146h-74l74 146h165z" />
    <glyph glyph-name="Ecircumflex" unicode="&#xca;" horiz-adv-x="635" 
d="M581 125v-125h-503v682h496v-125h-326v-143h311v-125h-311v-164h333zM386 900l99 -175h-89l-78 87l-80 -87h-88l99 175h137z" />
    <glyph glyph-name="Edieresis" unicode="&#xcb;" horiz-adv-x="635" 
d="M581 125v-125h-503v682h496v-125h-326v-143h311v-125h-311v-164h333zM216 877c36 0 65 -29 65 -65s-29 -65 -65 -65s-65 29 -65 65s29 65 65 65zM419 877c36 0 65 -29 65 -65s-29 -65 -65 -65s-65 29 -65 65s29 65 65 65z" />
    <glyph glyph-name="Egrave" unicode="&#xc8;" horiz-adv-x="635" 
d="M581 125v-125h-503v682h496v-125h-326v-143h311v-125h-311v-164h333zM159 894h165l74 -146h-74z" />
    <glyph glyph-name="Iacute" unicode="&#xcd;" 
d="M252 682v-682h-170v682h170zM326 894l-165 -146h-74l74 146h165z" />
    <glyph glyph-name="Icircumflex" unicode="&#xce;" 
d="M252 682v-682h-170v682h170zM235 900l99 -175h-89l-78 87l-80 -87h-88l99 175h137z" />
    <glyph glyph-name="Idieresis" unicode="&#xcf;" 
d="M252 682v-682h-170v682h170zM65 877c36 0 65 -29 65 -65s-29 -65 -65 -65s-65 29 -65 65s29 65 65 65zM268 877c36 0 65 -29 65 -65s-29 -65 -65 -65s-65 29 -65 65s29 65 65 65z" />
    <glyph glyph-name="Igrave" unicode="&#xcc;" 
d="M252 682v-682h-170v682h170zM8 894h165l74 -146h-74z" />
    <glyph glyph-name="Ntilde" unicode="&#xd1;" horiz-adv-x="844" 
d="M767 682v-682h-143l-377 437v-437h-170v682h156l364 -417v417h170zM549 889h68c-6 -96 -48 -151 -117 -151c-57 0 -120 54 -161 54c-24 0 -41 -19 -45 -52h-66c7 94 51 149 119 149c59 0 115 -54 158 -54c24 0 38 18 44 54z" />
    <glyph glyph-name="Oacute" unicode="&#xd3;" horiz-adv-x="875" 
d="M828 341c0 -175 -145 -350 -390 -350c-250 0 -391 176 -391 350c0 165 134 350 391 350s390 -186 390 -350zM653 341c0 125 -86 208 -215 208c-130 0 -216 -83 -216 -208s86 -208 216 -208c129 0 215 83 215 208zM597 894l-165 -146h-74l74 146h165z" />
    <glyph glyph-name="Ocircumflex" unicode="&#xd4;" horiz-adv-x="875" 
d="M828 341c0 -175 -145 -350 -390 -350c-250 0 -391 176 -391 350c0 165 134 350 391 350s390 -186 390 -350zM653 341c0 125 -86 208 -215 208c-130 0 -216 -83 -216 -208s86 -208 216 -208c129 0 215 83 215 208zM506 900l99 -175h-89l-78 87l-80 -87h-88l99 175h137z
" />
    <glyph glyph-name="Odieresis" unicode="&#xd6;" horiz-adv-x="875" 
d="M828 341c0 -175 -145 -350 -390 -350c-250 0 -391 176 -391 350c0 165 134 350 391 350s390 -186 390 -350zM653 341c0 125 -86 208 -215 208c-130 0 -216 -83 -216 -208s86 -208 216 -208c129 0 215 83 215 208zM336 877c36 0 65 -29 65 -65s-29 -65 -65 -65
s-65 29 -65 65s29 65 65 65zM539 877c36 0 65 -29 65 -65s-29 -65 -65 -65s-65 29 -65 65s29 65 65 65z" />
    <glyph glyph-name="Ograve" unicode="&#xd2;" horiz-adv-x="875" 
d="M828 341c0 -175 -145 -350 -390 -350c-250 0 -391 176 -391 350c0 165 134 350 391 350s390 -186 390 -350zM653 341c0 125 -86 208 -215 208c-130 0 -216 -83 -216 -208s86 -208 216 -208c129 0 215 83 215 208zM279 894h165l74 -146h-74z" />
    <glyph glyph-name="Otilde" unicode="&#xd5;" horiz-adv-x="875" 
d="M828 341c0 -175 -145 -350 -390 -350c-250 0 -391 176 -391 350c0 165 134 350 391 350s390 -186 390 -350zM653 341c0 125 -86 208 -215 208c-130 0 -216 -83 -216 -208s86 -208 216 -208c129 0 215 83 215 208zM564 889h68c-6 -96 -48 -151 -117 -151
c-57 0 -120 54 -161 54c-24 0 -41 -19 -45 -52h-66c7 94 51 149 119 149c59 0 115 -54 158 -54c24 0 38 18 44 54z" />
    <glyph glyph-name="Scaron" unicode="&#x160;" horiz-adv-x="604" 
d="M534 638v-133c-99 44 -158 61 -216 61c-61 0 -100 -22 -100 -56c0 -103 347 -74 347 -312c0 -131 -110 -207 -262 -207c-119 0 -178 31 -246 66v147c98 -65 158 -88 233 -88c65 0 100 23 100 63c0 112 -347 71 -347 316c0 118 102 196 260 196c76 0 145 -16 231 -53z
M234 725l-99 175h89l78 -87l80 87h88l-99 -175h-137z" />
    <glyph glyph-name="Uacute" unicode="&#xda;" horiz-adv-x="823" 
d="M582 682h170v-387c0 -226 -154 -304 -341 -304c-198 0 -341 92 -341 303v388h170v-392c0 -98 71 -157 169 -157c90 0 173 47 173 169v380zM571 894l-165 -146h-74l74 146h165z" />
    <glyph glyph-name="Ucircumflex" unicode="&#xdb;" horiz-adv-x="823" 
d="M582 682h170v-387c0 -226 -154 -304 -341 -304c-198 0 -341 92 -341 303v388h170v-392c0 -98 71 -157 169 -157c90 0 173 47 173 169v380zM480 900l99 -175h-89l-78 87l-80 -87h-88l99 175h137z" />
    <glyph glyph-name="Udieresis" unicode="&#xdc;" horiz-adv-x="823" 
d="M582 682h170v-387c0 -226 -154 -304 -341 -304c-198 0 -341 92 -341 303v388h170v-392c0 -98 71 -157 169 -157c90 0 173 47 173 169v380zM310 877c36 0 65 -29 65 -65s-29 -65 -65 -65s-65 29 -65 65s29 65 65 65zM513 877c36 0 65 -29 65 -65s-29 -65 -65 -65
s-65 29 -65 65s29 65 65 65z" />
    <glyph glyph-name="Ugrave" unicode="&#xd9;" horiz-adv-x="823" 
d="M582 682h170v-387c0 -226 -154 -304 -341 -304c-198 0 -341 92 -341 303v388h170v-392c0 -98 71 -157 169 -157c90 0 173 47 173 169v380zM253 894h165l74 -146h-74z" />
    <glyph glyph-name="Yacute" unicode="&#xdd;" horiz-adv-x="708" 
d="M269 0v319l-269 363h206l148 -214l149 214h205l-269 -363v-319h-170zM514 894l-165 -146h-74l74 146h165z" />
    <glyph glyph-name="Ydieresis" unicode="&#x178;" horiz-adv-x="708" 
d="M269 0v319l-269 363h206l148 -214l149 214h205l-269 -363v-319h-170zM253 877c36 0 65 -29 65 -65s-29 -65 -65 -65s-65 29 -65 65s29 65 65 65zM456 877c36 0 65 -29 65 -65s-29 -65 -65 -65s-65 29 -65 65s29 65 65 65z" />
    <glyph glyph-name="Zcaron" unicode="&#x17d;" horiz-adv-x="698" 
d="M666 682l-372 -557h372v-125h-662l375 557h-349v125h636zM281 725l-99 175h89l78 -87l80 87h88l-99 -175h-137z" />
    <glyph glyph-name="aacute" unicode="&#xe1;" horiz-adv-x="531" 
d="M531 114v-81c-40 -24 -97 -42 -136 -42c-48 0 -71 15 -81 52c-56 -38 -102 -52 -152 -52c-74 0 -129 55 -129 113c0 110 81 132 274 192c3 43 -17 77 -80 77c-58 0 -124 -30 -170 -77v118c60 37 127 56 200 56c116 0 195 -39 195 -140v-210c0 -23 9 -32 24 -32
c10 0 21 2 55 26zM307 112v111c-86 -31 -127 -51 -127 -97c0 -27 21 -49 47 -49c27 0 56 13 80 35zM425 676l-165 -146h-74l74 146h165z" />
    <glyph glyph-name="acircumflex" unicode="&#xe2;" horiz-adv-x="531" 
d="M531 114v-81c-40 -24 -97 -42 -136 -42c-48 0 -71 15 -81 52c-56 -38 -102 -52 -152 -52c-74 0 -129 55 -129 113c0 110 81 132 274 192c3 43 -17 77 -80 77c-58 0 -124 -30 -170 -77v118c60 37 127 56 200 56c116 0 195 -39 195 -140v-210c0 -23 9 -32 24 -32
c10 0 21 2 55 26zM307 112v111c-86 -31 -127 -51 -127 -97c0 -27 21 -49 47 -49c27 0 56 13 80 35zM334 682l99 -175h-89l-78 87l-80 -87h-88l99 175h137z" />
    <glyph glyph-name="adieresis" unicode="&#xe4;" horiz-adv-x="531" 
d="M531 114v-81c-40 -24 -97 -42 -136 -42c-48 0 -71 15 -81 52c-56 -38 -102 -52 -152 -52c-74 0 -129 55 -129 113c0 110 81 132 274 192c3 43 -17 77 -80 77c-58 0 -124 -30 -170 -77v118c60 37 127 56 200 56c116 0 195 -39 195 -140v-210c0 -23 9 -32 24 -32
c10 0 21 2 55 26zM307 112v111c-86 -31 -127 -51 -127 -97c0 -27 21 -49 47 -49c27 0 56 13 80 35zM164 659c36 0 65 -29 65 -65s-29 -65 -65 -65s-65 29 -65 65s29 65 65 65zM367 659c36 0 65 -29 65 -65s-29 -65 -65 -65s-65 29 -65 65s29 65 65 65z" />
    <glyph glyph-name="agrave" unicode="&#xe0;" horiz-adv-x="531" 
d="M531 114v-81c-40 -24 -97 -42 -136 -42c-48 0 -71 15 -81 52c-56 -38 -102 -52 -152 -52c-74 0 -129 55 -129 113c0 110 81 132 274 192c3 43 -17 77 -80 77c-58 0 -124 -30 -170 -77v118c60 37 127 56 200 56c116 0 195 -39 195 -140v-210c0 -23 9 -32 24 -32
c10 0 21 2 55 26zM307 112v111c-86 -31 -127 -51 -127 -97c0 -27 21 -49 47 -49c27 0 56 13 80 35zM107 676h165l74 -146h-74z" />
    <glyph glyph-name="aring" unicode="&#xe5;" horiz-adv-x="531" 
d="M531 114v-81c-40 -24 -97 -42 -136 -42c-48 0 -71 15 -81 52c-56 -38 -102 -52 -152 -52c-74 0 -129 55 -129 113c0 110 81 132 274 192c3 43 -17 77 -80 77c-58 0 -124 -30 -170 -77v118c60 37 127 56 200 56c116 0 195 -39 195 -140v-210c0 -23 9 -32 24 -32
c10 0 21 2 55 26zM307 112v111c-86 -31 -127 -51 -127 -97c0 -27 21 -49 47 -49c27 0 56 13 80 35zM266 664c-30 0 -54 -24 -54 -54s24 -55 54 -55s55 25 55 55s-25 54 -55 54zM266 711c56 0 101 -45 101 -101s-45 -102 -101 -102s-102 46 -102 102s46 101 102 101z" />
    <glyph glyph-name="atilde" unicode="&#xe3;" horiz-adv-x="531" 
d="M531 114v-81c-40 -24 -97 -42 -136 -42c-48 0 -71 15 -81 52c-56 -38 -102 -52 -152 -52c-74 0 -129 55 -129 113c0 110 81 132 274 192c3 43 -17 77 -80 77c-58 0 -124 -30 -170 -77v118c60 37 127 56 200 56c116 0 195 -39 195 -140v-210c0 -23 9 -32 24 -32
c10 0 21 2 55 26zM307 112v111c-86 -31 -127 -51 -127 -97c0 -27 21 -49 47 -49c27 0 56 13 80 35zM392 671h68c-6 -96 -48 -151 -117 -151c-57 0 -120 54 -161 54c-24 0 -41 -19 -45 -52h-66c7 94 51 149 119 149c59 0 115 -54 158 -54c24 0 38 18 44 54z" />
    <glyph glyph-name="eacute" unicode="&#xe9;" horiz-adv-x="552" 
d="M510 143v-91c-83 -61 -170 -61 -206 -61c-162 0 -267 94 -267 238c0 141 101 241 243 241c134 0 245 -95 238 -263h-331c5 -82 61 -130 152 -130c58 0 103 17 171 66zM190 283h200c-6 63 -44 101 -100 101c-57 0 -94 -37 -100 -101zM436 676l-165 -146h-74l74 146h165z
" />
    <glyph glyph-name="ecircumflex" unicode="&#xea;" horiz-adv-x="552" 
d="M510 143v-91c-83 -61 -170 -61 -206 -61c-162 0 -267 94 -267 238c0 141 101 241 243 241c134 0 245 -95 238 -263h-331c5 -82 61 -130 152 -130c58 0 103 17 171 66zM190 283h200c-6 63 -44 101 -100 101c-57 0 -94 -37 -100 -101zM345 682l99 -175h-89l-78 87l-80 -87
h-88l99 175h137z" />
    <glyph glyph-name="edieresis" unicode="&#xeb;" horiz-adv-x="552" 
d="M510 143v-91c-83 -61 -170 -61 -206 -61c-162 0 -267 94 -267 238c0 141 101 241 243 241c134 0 245 -95 238 -263h-331c5 -82 61 -130 152 -130c58 0 103 17 171 66zM190 283h200c-6 63 -44 101 -100 101c-57 0 -94 -37 -100 -101zM175 659c36 0 65 -29 65 -65
s-29 -65 -65 -65s-65 29 -65 65s29 65 65 65zM378 659c36 0 65 -29 65 -65s-29 -65 -65 -65s-65 29 -65 65s29 65 65 65z" />
    <glyph glyph-name="egrave" unicode="&#xe8;" horiz-adv-x="552" 
d="M510 143v-91c-83 -61 -170 -61 -206 -61c-162 0 -267 94 -267 238c0 141 101 241 243 241c134 0 245 -95 238 -263h-331c5 -82 61 -130 152 -130c58 0 103 17 171 66zM190 283h200c-6 63 -44 101 -100 101c-57 0 -94 -37 -100 -101zM118 676h165l74 -146h-74z" />
    <glyph glyph-name="iacute" unicode="&#xed;" horiz-adv-x="271" 
d="M208 461v-461h-145v461h145zM295 676l-165 -146h-74l74 146h165z" />
    <glyph glyph-name="icircumflex" unicode="&#xee;" horiz-adv-x="271" 
d="M208 461v-461h-145v461h145zM204 682l99 -175h-89l-78 87l-80 -87h-88l99 175h137z" />
    <glyph glyph-name="idieresis" unicode="&#xef;" horiz-adv-x="271" 
d="M208 461v-461h-145v461h145zM34 659c36 0 65 -29 65 -65s-29 -65 -65 -65s-65 29 -65 65s29 65 65 65zM237 659c36 0 65 -29 65 -65s-29 -65 -65 -65s-65 29 -65 65s29 65 65 65z" />
    <glyph glyph-name="igrave" unicode="&#xec;" horiz-adv-x="271" 
d="M208 461v-461h-145v461h145zM-23 676h165l74 -146h-74z" />
    <glyph glyph-name="ntilde" unicode="&#xf1;" horiz-adv-x="583" 
d="M205 461v-66c46 53 91 75 150 75c72 0 168 -41 168 -177v-293h-145v281c0 65 -31 92 -72 92c-36 0 -63 -19 -101 -76v-297h-145v461h145zM418 671h68c-6 -96 -48 -151 -117 -151c-57 0 -120 54 -161 54c-24 0 -41 -19 -45 -52h-66c7 94 51 149 119 149
c59 0 115 -54 158 -54c24 0 38 18 44 54z" />
    <glyph glyph-name="oacute" unicode="&#xf3;" horiz-adv-x="594" 
d="M557 230c0 -183 -157 -239 -259 -239c-151 0 -261 95 -261 240c0 157 125 239 261 239c113 0 259 -63 259 -240zM402 234c0 90 -31 150 -104 150c-63 0 -106 -49 -106 -153c0 -119 51 -154 106 -154c68 0 104 56 104 157zM457 676l-165 -146h-74l74 146h165z" />
    <glyph glyph-name="ocircumflex" unicode="&#xf4;" horiz-adv-x="594" 
d="M557 230c0 -183 -157 -239 -259 -239c-151 0 -261 95 -261 240c0 157 125 239 261 239c113 0 259 -63 259 -240zM402 234c0 90 -31 150 -104 150c-63 0 -106 -49 -106 -153c0 -119 51 -154 106 -154c68 0 104 56 104 157zM366 682l99 -175h-89l-78 87l-80 -87h-88l99 175
h137z" />
    <glyph glyph-name="odieresis" unicode="&#xf6;" horiz-adv-x="594" 
d="M557 230c0 -183 -157 -239 -259 -239c-151 0 -261 95 -261 240c0 157 125 239 261 239c113 0 259 -63 259 -240zM402 234c0 90 -31 150 -104 150c-63 0 -106 -49 -106 -153c0 -119 51 -154 106 -154c68 0 104 56 104 157zM196 659c36 0 65 -29 65 -65s-29 -65 -65 -65
s-65 29 -65 65s29 65 65 65zM399 659c36 0 65 -29 65 -65s-29 -65 -65 -65s-65 29 -65 65s29 65 65 65z" />
    <glyph glyph-name="ograve" unicode="&#xf2;" horiz-adv-x="594" 
d="M557 230c0 -183 -157 -239 -259 -239c-151 0 -261 95 -261 240c0 157 125 239 261 239c113 0 259 -63 259 -240zM402 234c0 90 -31 150 -104 150c-63 0 -106 -49 -106 -153c0 -119 51 -154 106 -154c68 0 104 56 104 157zM139 676h165l74 -146h-74z" />
    <glyph glyph-name="otilde" unicode="&#xf5;" horiz-adv-x="594" 
d="M557 230c0 -183 -157 -239 -259 -239c-151 0 -261 95 -261 240c0 157 125 239 261 239c113 0 259 -63 259 -240zM402 234c0 90 -31 150 -104 150c-63 0 -106 -49 -106 -153c0 -119 51 -154 106 -154c68 0 104 56 104 157zM424 671h68c-6 -96 -48 -151 -117 -151
c-57 0 -120 54 -161 54c-24 0 -41 -19 -45 -52h-66c7 94 51 149 119 149c59 0 115 -54 158 -54c24 0 38 18 44 54z" />
    <glyph glyph-name="scaron" unicode="&#x161;" horiz-adv-x="427" 
d="M377 436v-103c-63 39 -125 51 -154 51c-19 0 -52 -4 -52 -36c0 -51 229 -53 229 -207c0 -96 -68 -150 -188 -150c-74 0 -145 23 -165 34v102c47 -20 94 -39 149 -39c43 0 70 13 70 34c0 67 -229 55 -229 206c0 85 77 142 191 142c58 0 101 -10 149 -34zM145 507l-99 175
h89l78 -87l80 87h88l-99 -175h-137z" />
    <glyph glyph-name="uacute" unicode="&#xfa;" horiz-adv-x="583" 
d="M378 0v66c-46 -53 -91 -75 -149 -75c-91 0 -169 56 -169 175v295h145v-285c0 -65 35 -88 73 -88c44 0 84 34 99 79v294h146v-461h-145zM451 676l-165 -146h-74l74 146h165z" />
    <glyph glyph-name="ucircumflex" unicode="&#xfb;" horiz-adv-x="583" 
d="M378 0v66c-46 -53 -91 -75 -149 -75c-91 0 -169 56 -169 175v295h145v-285c0 -65 35 -88 73 -88c44 0 84 34 99 79v294h146v-461h-145zM360 682l99 -175h-89l-78 87l-80 -87h-88l99 175h137z" />
    <glyph glyph-name="udieresis" unicode="&#xfc;" horiz-adv-x="583" 
d="M378 0v66c-46 -53 -91 -75 -149 -75c-91 0 -169 56 -169 175v295h145v-285c0 -65 35 -88 73 -88c44 0 84 34 99 79v294h146v-461h-145zM190 659c36 0 65 -29 65 -65s-29 -65 -65 -65s-65 29 -65 65s29 65 65 65zM393 659c36 0 65 -29 65 -65s-29 -65 -65 -65
s-65 29 -65 65s29 65 65 65z" />
    <glyph glyph-name="ugrave" unicode="&#xf9;" horiz-adv-x="583" 
d="M378 0v66c-46 -53 -91 -75 -149 -75c-91 0 -169 56 -169 175v295h145v-285c0 -65 35 -88 73 -88c44 0 84 34 99 79v294h146v-461h-145zM133 676h165l74 -146h-74z" />
    <glyph glyph-name="yacute" unicode="&#xfd;" horiz-adv-x="510" 
d="M509 461l-309 -682h-154l135 296l-180 386h155l97 -237l104 237h152zM415 676l-165 -146h-74l74 146h165z" />
    <glyph glyph-name="ydieresis" unicode="&#xff;" horiz-adv-x="510" 
d="M509 461l-309 -682h-154l135 296l-180 386h155l97 -237l104 237h152zM154 659c36 0 65 -29 65 -65s-29 -65 -65 -65s-65 29 -65 65s29 65 65 65zM357 659c36 0 65 -29 65 -65s-29 -65 -65 -65s-65 29 -65 65s29 65 65 65z" />
    <glyph glyph-name="zcaron" unicode="&#x17e;" horiz-adv-x="521" 
d="M42 461h450l-236 -362h236v-99h-473l237 362h-214v99zM192 507l-99 175h89l78 -87l80 87h88l-99 -175h-137z" />
    </font>
</defs>
</svg>
